# File created by Blade
# Date/Time:  Thu Jan 22 15:33:01 2015
# Frame Rate: 120.000 fps
#------------------------------------------------------
:FULLY-SPECIFIED
:DEGREES
2532
root 1.407746 32.616963 -4.553928 402.220743 8.843481 -359.985696
RightUpLeg -36.980716 -13.052472 6.728684
RightLeg -3.331762 -0.000000 0.000000
RightFoot -8.379935 5.249772 51.202011
RightToeBase 127.476905 -0.000000 -0.000000
LeftUpLeg -37.327030 5.044350 -0.604135
LeftLeg 2.678051 -0.000000 -0.000000
LeftFoot -11.901980 -6.206527 -1.181880
LeftToeBase 6.699010 -0.000000 -0.000000
Spine -42.969170 -0.506042 2.135487
RightShoulder -165.801029 -17.287312 131.313705
RightArm 171.346723 11.410770 141.098022
RightForeArm 1.806597 -0.000000 -1.026016
RightHand -0.624769 -0.000000 7.407132
RightHandThumb1 -24.326973 -0.000000 -32.862282
LeftShoulder -13.198375 0.946700 41.331362
LeftArm 18.329960 -14.713678 -29.661763
LeftForeArm 24.293459 -0.000000 -3.136519
LeftHand -30.415091 -0.000000 -3.386124
LeftHandThumb1 -26.253704 0.000000 33.147579
Head -2.027831 -3.610265 9.753040
2533
root 1.485457 32.624888 -4.605554 402.307313 8.752594 -360.092476
RightUpLeg -37.292810 -13.162453 6.835769
RightLeg -3.173867 -0.000000 0.000000
RightFoot -8.170142 5.264579 51.237709
RightToeBase 127.736489 -0.000000 -0.000000
LeftUpLeg -37.404557 4.949918 -0.599794
LeftLeg 2.522455 -0.000000 -0.000000
LeftFoot -11.810310 -6.091489 -1.209244
LeftToeBase 6.765407 -0.000000 -0.000000
Spine -43.080441 -0.375457 2.092938
RightShoulder -165.793737 -17.413920 131.323498
RightArm 171.380725 11.285517 140.995701
RightForeArm 1.808246 -0.000000 -1.058476
RightHand -0.582016 -0.000000 7.631258
RightHandThumb1 -24.326973 -0.000000 -32.862282
LeftShoulder -13.226535 0.852788 41.329850
LeftArm 18.247917 -14.818520 -29.691089
LeftForeArm 24.350566 -0.000000 -3.183846
LeftHand -30.473658 -0.000000 -3.551945
LeftHandThumb1 -26.253704 0.000000 33.147579
Head -2.115236 -3.594304 9.735402
2534
root 1.562523 32.631964 -4.653207 402.336214 8.661261 -360.208184
RightUpLeg -37.508207 -13.241030 6.902520
RightLeg -3.055461 -0.000000 0.000000
RightFoot -7.985922 5.306666 51.305778
RightToeBase 127.946652 -0.000000 -0.000000
LeftUpLeg -37.393005 4.813038 -0.544156
LeftLeg 2.326760 -0.000000 -0.000000
LeftFoot -11.725862 -5.907085 -1.254773
LeftToeBase 6.851490 -0.000000 -0.000000
Spine -43.141314 -0.278650 2.106033
RightShoulder -165.846467 -17.516548 131.375721
RightArm 171.443778 11.072662 140.926317
RightForeArm 1.644908 -0.000000 -1.033600
RightHand -0.773319 -0.000000 8.010567
RightHandThumb1 -24.326973 -0.000000 -32.862282
LeftShoulder -13.283217 0.806685 41.324301
LeftArm 18.150999 -14.844280 -29.726394
LeftForeArm 24.315944 -0.000000 -3.242035
LeftHand -30.473267 0.000000 -3.564897
LeftHandThumb1 -26.253704 0.000000 33.147579
Head -2.201824 -3.522800 9.684952
2535
root 1.635049 32.639368 -4.697990 402.345834 8.588384 -360.347866
RightUpLeg -37.706962 -13.395882 7.092158
RightLeg -2.974205 -0.000000 0.000000
RightFoot -7.764066 5.348514 51.083391
RightToeBase 128.633594 -0.000000 -0.000000
LeftUpLeg -37.312340 4.584395 -0.375148
LeftLeg 2.044908 -0.000000 -0.000000
LeftFoot -11.611506 -5.609970 -1.314769
LeftToeBase 6.923340 -0.000000 -0.000000
Spine -43.186878 -0.155231 2.129695
RightShoulder -165.870647 -17.624661 131.403396
RightArm 171.501842 11.060770 140.809456
RightForeArm 1.562101 0.000000 -1.070402
RightHand -0.991527 -0.000000 8.153394
RightHandThumb1 -24.326973 -0.000000 -32.862282
LeftShoulder -13.310075 0.745719 41.310856
LeftArm 18.074159 -14.884982 -29.786338
LeftForeArm 24.321213 -0.000000 -3.310751
LeftHand -30.581164 -0.000000 -3.687715
LeftHandThumb1 -26.253704 0.000000 33.147579
Head -2.295848 -3.520528 9.591638
2536
root 1.707192 32.644821 -4.737699 402.308655 8.494952 -360.451975
RightUpLeg -37.766173 -13.382429 7.103056
RightLeg -2.949889 -0.000000 0.000000
RightFoot -7.791800 5.332212 51.002200
RightToeBase 128.769917 -0.000000 -0.000000
LeftUpLeg -37.165177 4.355521 -0.250553
LeftLeg 1.752404 -0.000000 -0.000000
LeftFoot -11.482880 -5.298556 -1.360398
LeftToeBase 6.918197 -0.000000 -0.000000
Spine -43.189413 -0.023879 2.095049
RightShoulder -165.904885 -17.745437 131.454211
RightArm 171.494124 11.107947 140.714940
RightForeArm 1.609152 -0.000000 -1.095511
RightHand -0.978332 -0.000000 8.330111
RightHandThumb1 -24.326973 -0.000000 -32.862282
LeftShoulder -13.310825 0.749021 41.299697
LeftArm 17.996706 -14.989422 -29.899415
LeftForeArm 24.378940 0.000000 -3.295402
LeftHand -30.570269 -0.000000 -3.739677
LeftHandThumb1 -26.253704 0.000000 33.147579
Head -2.382965 -3.488791 9.499266
2537
root 1.774599 32.652004 -4.775581 402.251450 8.435059 -360.608465
RightUpLeg -37.779549 -13.257816 7.072985
RightLeg -2.888802 -0.000000 0.000000
RightFoot -7.784227 5.452914 51.790237
RightToeBase 127.683631 -0.000000 -0.000000
LeftUpLeg -37.043012 4.257400 -0.137389
LeftLeg 1.520535 -0.000000 -0.000000
LeftFoot -11.412574 -5.135043 -1.440154
LeftToeBase 7.016156 -0.000000 -0.000000
Spine -43.181129 0.130057 2.112451
RightShoulder -165.944806 -17.814925 131.521501
RightArm 171.486385 11.091618 140.641628
RightForeArm 1.489468 0.000000 -1.098564
RightHand -1.014937 -0.000000 8.372603
RightHandThumb1 -24.326973 -0.000000 -32.862282
LeftShoulder -13.316234 0.761822 41.267752
LeftArm 17.991346 -15.050443 -30.010330
LeftForeArm 24.392770 0.000000 -3.333432
LeftHand -30.622095 -0.000000 -3.668885
LeftHandThumb1 -26.253704 0.000000 33.147579
Head -2.459623 -3.519162 9.390302
2538
root 1.835665 32.659769 -4.808317 402.174242 8.360650 -360.760546
RightUpLeg -37.782780 -13.168665 7.068963
RightLeg -2.773653 -0.000000 0.000000
RightFoot -7.849959 5.777395 52.975097
RightToeBase 125.048592 -0.000000 -0.000000
LeftUpLeg -36.865855 4.126738 0.018168
LeftLeg 1.244866 -0.000000 -0.000000
LeftFoot -11.310732 -4.948993 -1.555710
LeftToeBase 7.028364 -0.000000 -0.000000
Spine -43.166860 0.256390 2.126549
RightShoulder -166.041407 -17.821958 131.663452
RightArm 171.517927 11.038563 140.608242
RightForeArm 1.502166 0.000000 -1.086540
RightHand -1.070698 -0.000000 8.215855
RightHandThumb1 -24.326973 -0.000000 -32.862282
LeftShoulder -13.351469 0.805986 41.261603
LeftArm 18.045298 -15.060470 -30.157599
LeftForeArm 24.418941 -0.000000 -3.429416
LeftHand -30.615593 -0.000000 -3.544276
LeftHandThumb1 -26.253704 0.000000 33.147579
Head -2.505170 -3.491999 9.314741
2539
root 1.898637 32.667123 -4.838414 402.075227 8.327857 -360.871461
RightUpLeg -37.709019 -12.982579 6.966574
RightLeg -2.702902 -0.000000 0.000000
RightFoot -8.221676 5.674901 53.096748
RightToeBase 124.536336 -0.000000 -0.000000
LeftUpLeg -36.656146 3.934781 0.170748
LeftLeg 0.960225 -0.000000 -0.000000
LeftFoot -11.193855 -4.810280 -1.689683
LeftToeBase 7.191291 -0.000000 -0.000000
Spine -43.129870 0.361135 2.136180
RightShoulder -166.089659 -17.785612 131.779565
RightArm 171.608325 11.040356 140.573292
RightForeArm 1.488234 -0.000000 -1.107075
RightHand -1.206271 0.000000 8.296847
RightHandThumb1 -24.326973 -0.000000 -32.862282
LeftShoulder -13.334204 0.840133 41.247676
LeftArm 18.037490 -15.079174 -30.321750
LeftForeArm 24.529812 -0.000000 -3.451868
LeftHand -30.623292 -0.000000 -3.652883
LeftHandThumb1 -26.253704 0.000000 33.147579
Head -2.538470 -3.474523 9.172145
2540
root 1.951045 32.677154 -4.865486 401.957167 8.318933 -361.056307
RightUpLeg -37.635511 -12.825160 6.990839
RightLeg -2.614164 -0.000000 0.000000
RightFoot -8.457125 5.426839 52.842342
RightToeBase 125.234470 -0.000000 -0.000000
LeftUpLeg -36.467670 3.851129 0.358016
LeftLeg 0.723743 -0.000000 -0.000000
LeftFoot -11.116071 -4.698079 -1.826977
LeftToeBase 7.291861 -0.000000 -0.000000
Spine -43.089225 0.511086 2.178277
RightShoulder -166.149073 -17.763196 131.904448
RightArm 171.617546 11.077306 140.521472
RightForeArm 1.397551 -0.000000 -1.139397
RightHand -1.177752 -0.000000 8.211108
RightHandThumb1 -24.326973 -0.000000 -32.862282
LeftShoulder -13.293845 0.912417 41.231015
LeftArm 18.107789 -15.091122 -30.491751
LeftForeArm 24.522547 -0.000000 -3.542170
LeftHand -30.527067 0.000000 -3.619260
LeftHandThumb1 -26.253704 0.000000 33.147579
Head -2.568558 -3.509570 9.061248
2541
root 2.007739 32.686471 -4.893414 401.851976 8.315559 -361.167824
RightUpLeg -37.548471 -12.619498 6.918536
RightLeg -2.484960 -0.000000 0.000000
RightFoot -8.841692 5.111250 53.029103
RightToeBase 125.119891 -0.000000 -0.000000
LeftUpLeg -36.302879 3.718263 0.476532
LeftLeg 0.515010 -0.000000 -0.000000
LeftFoot -11.002163 -4.592168 -2.058987
LeftToeBase 7.404236 -0.000000 -0.000000
Spine -43.049492 0.620930 2.185424
RightShoulder -166.195774 -17.786059 131.987780
RightArm 171.593077 11.134723 140.471662
RightForeArm 1.308361 -0.000000 -1.153690
RightHand -1.015800 -0.000000 8.307165
RightHandThumb1 -24.326973 -0.000000 -32.862282
LeftShoulder -13.248482 0.933827 41.221035
LeftArm 18.147093 -14.951938 -30.648775
LeftForeArm 24.496463 -0.000000 -3.630030
LeftHand -30.482494 -0.000000 -3.678347
LeftHandThumb1 -26.253704 0.000000 33.147579
Head -2.589995 -3.525525 8.938209
2542
root 2.053874 32.697364 -4.918771 401.752381 8.350989 -361.319450
RightUpLeg -37.445762 -12.337477 6.865139
RightLeg -2.362962 -0.000000 0.000000
RightFoot -9.389109 4.183397 51.213361
RightToeBase 128.702121 -0.000000 -0.000000
LeftUpLeg -36.194990 3.662634 0.627438
LeftLeg 0.395910 -0.000000 -0.000000
LeftFoot -10.930226 -4.582068 -2.077578
LeftToeBase 7.421195 -0.000000 -0.000000
Spine -43.025554 0.698162 2.260606
RightShoulder -166.230820 -17.703392 132.084672
RightArm 171.693171 11.091459 140.403590
RightForeArm 1.228163 0.000000 -1.193303
RightHand -1.196456 -0.000000 8.388312
RightHandThumb1 -24.326973 -0.000000 -32.862282
LeftShoulder -13.222900 1.023744 41.217562
LeftArm 18.207965 -14.832215 -30.817466
LeftForeArm 24.360127 -0.000000 -3.707894
LeftHand -30.298520 -0.000000 -3.770315
LeftHandThumb1 -26.253704 0.000000 33.147579
Head -2.595662 -3.520033 8.813305
2543
root 2.098346 32.709379 -4.945378 401.676150 8.420200 -361.464012
RightUpLeg -37.395170 -12.058512 6.754434
RightLeg -2.024029 -0.000000 0.000000
RightFoot -9.758788 4.140139 51.875460
RightToeBase 126.851440 -0.000000 -0.000000
LeftUpLeg -36.138012 3.584406 0.779452
LeftLeg 0.310669 -0.000000 -0.000000
LeftFoot -10.846093 -4.552101 -2.185275
LeftToeBase 7.408520 -0.000000 -0.000000
Spine -43.024021 0.771509 2.332948
RightShoulder -166.251025 -17.741146 132.127540
RightArm 171.668800 11.093974 140.314501
RightForeArm 1.126279 0.000000 -1.215579
RightHand -1.269012 -0.000000 8.396524
RightHandThumb1 -24.326973 -0.000000 -32.862282
LeftShoulder -13.190277 1.161452 41.202604
LeftArm 18.354365 -14.823842 -31.027860
LeftForeArm 24.385294 -0.000000 -3.796822
LeftHand -30.247278 -0.000000 -3.986367
LeftHandThumb1 -26.253704 0.000000 33.147579
Head -2.586871 -3.527395 8.703660
